Coordinates
version=1
nRows=22
nColumns=24
inDegrees=yes

Units are S.I. units (second, meters, Newtons, ...)
Angles are in degrees.

endheader
time	pelvis_tilt	pelvis_list	pelvis_rotation	pelvis_tx	pelvis_ty	pelvis_tz	hip_flexion_r	hip_adduction_r	hip_rotation_r	knee_angle_r	ankle_angle_r	subtalar_angle_r	mtp_angle_r	hip_flexion_l	hip_adduction_l	hip_rotation_l	knee_angle_l	ankle_angle_l	subtalar_angle_l	mtp_angle_l	lumbar_extension	lumbar_bending	lumbar_rotation
      5.99000000	      3.77011965	     -1.39361985	      4.24666424	     -1.29756854	      0.91409658	      0.24723709	     15.20102257	      5.53976857	     -4.44273383	     -1.67074915	      1.14368710	     -2.99702177	      0.00000000	    -14.27807401	      2.23584988	      2.14554897	    -18.15811317	     17.22245796	     -2.19047387	      0.00000000	    -21.71306427	      4.66105051	     -6.98907962
      6.00000000	      4.07426589	     -1.72908749	      4.19967680	     -1.28648020	      0.91492412	      0.24805411	     14.94235168	      6.05103035	     -3.14488424	     -2.95206969	     -0.17472339	     -4.34096482	      0.00000000	    -14.24318965	      1.65962476	      1.31979245	    -20.02541564	     16.26053605	     -1.41662349	      0.00000000	    -21.85587459	      5.16132005	     -7.06825308
      6.01000000	      4.39338882	     -2.06064262	      4.09943610	     -1.27540987	      0.91606045	      0.24894302	     14.67586017	      6.57066749	     -2.14346050	     -4.27515505	     -1.19008654	     -5.24845263	      0.00000000	    -14.08821224	      1.06601769	      0.31038667	    -22.07186562	     15.05435321	     -0.69805592	      0.00000000	    -22.02350011	      5.63541649	     -7.11445904
      6.02000000	      4.70291413	     -2.36068428	      3.99441004	     -1.26438200	      0.91742776	      0.24982781	     14.39649231	      7.04589122	     -1.46021744	     -5.58471631	     -1.79338520	     -5.87761484	      0.00000000	    -13.78039440	      0.47765909	     -0.75835988	    -24.29625065	     13.47390971	     -0.06980712	      0.00000000	    -22.17948389	      6.06047387	     -7.10724850
      6.03000000	      5.01064114	     -2.60488333	      3.87643327	     -1.25344496	      0.91898853	      0.25071416	     14.07742160	      7.43675983	     -1.20165795	     -6.84093792	     -1.98396892	     -6.00678213	      0.00000000	    -13.34232257	     -0.07876224	     -1.88270575	    -26.64326254	     11.46958674	      0.19194246	      0.00000000	    -22.33830362	      6.40141328	     -7.08533346
      6.04000000	      5.30456738	     -2.81695200	      3.79436947	     -1.24259786	      0.92065179	      0.25160833	     13.67014329	      7.77200901	     -1.08279358	     -7.93140994	     -1.87683195	     -6.10539235	      0.00000000	    -12.75031541	     -0.66467502	     -3.04001025	    -29.12835824	      9.14969066	      0.39745654	      0.00000000	    -22.47727358	      6.69478105	     -7.09484812
      6.05000000	      5.52338849	     -2.97279114	      3.69410520	     -1.23192608	      0.92228850	      0.25254969	     13.26450724	      8.02428349	     -1.16992307	     -8.88616267	     -1.42640815	     -5.94890711	      0.00000000	    -11.96995195	     -1.20998439	     -4.15225698	    -31.67970355	      6.41957046	      0.14437870	      0.00000000	    -22.54231933	      6.88451037	     -7.06327802
      6.06000000	      5.75308101	     -3.11787498	      3.66229916	     -1.22142205	      0.92400691	      0.25341104	     12.73123225	      8.22561361	     -1.59608356	     -9.61187674	     -0.76312181	     -5.42431860	      0.00000000	    -11.10599833	     -1.77461977	     -5.09600016	    -34.25789821	      3.29054544	     -0.57577716	      0.00000000	    -22.63537819	      7.06728965	     -7.06926394
      6.07000000	      5.92805959	     -3.24168370	      3.65104729	     -1.21111315	      0.92565856	      0.25426680	     12.13121927	      8.40795450	     -1.88776441	    -10.10730408	     -0.00108014	     -5.06630927	      0.00000000	    -10.10805299	     -2.30974523	     -5.83053927	    -36.83986416	     -0.14118321	     -1.72195525	      0.00000000	    -22.68957712	      7.20881569	     -7.01437805
      6.08000000	      6.08591671	     -3.36942007	      3.67454170	     -1.20101362	      0.92728633	      0.25507769	     11.45673758	      8.58608374	     -2.28605091	    -10.41221713	      0.82744356	     -4.53617841	      0.00000000	     -9.02557673	     -2.84369886	     -6.37212961	    -39.41080555	     -3.70138070	     -3.19817315	      0.00000000	    -22.75982386	      7.34692385	     -6.96987721
      6.09000000	      6.22695452	     -3.52058374	      3.70418325	     -1.19112542	      0.92886213	      0.25585291	     10.74254406	      8.78275808	     -2.81949539	    -10.58714364	      1.74747470	     -3.74219239	      0.00000000	     -7.86999173	     -3.38820356	     -6.76756716	    -41.96715584	     -7.13058018	     -4.82489932	      0.00000000	    -22.85444779	      7.50456538	     -6.87284000
      6.10000000	      6.30883080	     -3.64061450	      3.74041259	     -1.18144718	      0.93032589	      0.25659754	      9.99666383	      8.97891051	     -2.98808240	    -10.58012357	      2.45126783	     -3.42819000	      0.00000000	     -6.60713194	     -3.84895435	     -6.94109384	    -44.48481370	    -10.26580245	     -6.49237133	      0.00000000	    -22.91660931	      7.61276083	     -6.76972823
      6.11000000	      6.37017938	     -3.76329451	      3.76978143	     -1.17196812	      0.93172405	      0.25729652	      9.24149689	      9.17941563	     -3.17833930	    -10.49550437	      3.15881885	     -3.00348755	      0.00000000	     -5.28691490	     -4.27011836	     -6.98481291	    -46.95131221	    -12.77577528	     -8.01398912	      0.00000000	    -22.99708289	      7.71351309	     -6.62337081
      6.12000000	      6.38052661	     -3.89194167	      3.78648993	     -1.16266061	      0.93301067	      0.25795819	      8.50597625	      9.39222465	     -3.29156382	    -10.32613933	      3.78257286	     -2.61619499	      0.00000000	     -3.88314912	     -4.64337936	     -6.91575771	    -49.34544857	    -14.40310090	     -9.28946231	      0.00000000	    -23.03609485	      7.81169362	     -6.40843195
      6.13000000	      6.35202147	     -3.98899799	      3.77586931	     -1.15353257	      0.93420177	      0.25861247	      7.81249148	      9.57183266	     -3.37268942	    -10.14595255	      4.39467698	     -2.21629168	      0.00000000	     -2.42643836	     -4.94253002	     -6.81794893	    -51.61894051	    -15.08777730	    -10.31187510	      0.00000000	    -23.05964732	      7.85306298	     -6.22265173
      6.14000000	      6.28139517	     -4.07004274	      3.74359150	     -1.14455435	      0.93529127	      0.25924078	      7.16351812	      9.73138326	     -3.42046066	     -9.95102621	      4.98890433	     -1.82454150	      0.00000000	     -0.92476043	     -5.18027244	     -6.70355753	    -53.72791135	    -14.83605133	    -11.13352127	      0.00000000	    -23.04568762	      7.86096644	     -6.02360099
      6.15000000	      6.19671017	     -4.11126895	      3.69971300	     -1.13572020	      0.93632425	      0.25982609	      6.55142846	      9.83419244	     -3.56339106	     -9.78537315	      5.67785436	     -1.24991633	      0.00000000	      0.57186914	     -5.32600771	     -6.57126377	    -55.61248826	    -13.73094480	    -11.89360251	      0.00000000	    -23.02696508	      7.81599049	     -5.84364008
      6.16000000	      6.04504185	     -4.14460779	      3.62581857	     -1.12698809	      0.93722077	      0.26042410	      5.99107843	      9.93843286	     -3.49777590	     -9.56978993	      6.13538494	     -0.98974507	      0.00000000	      2.11517091	     -5.42501489	     -6.46529886	    -57.24834366	    -12.08818967	    -12.73525840	      0.00000000	    -22.92200143	      7.74628924	     -5.62846275
      6.17000000	      5.87710528	     -4.14181061	      3.54600748	     -1.11836974	      0.93805498	      0.26098097	      5.46368511	      9.99514373	     -3.45977667	     -9.37175042	      6.62752461	     -0.69180086	      0.00000000	      3.64230378	     -5.44582476	     -6.35879525	    -58.60170169	    -10.10549908	    -13.59881806	      0.00000000	    -22.80663919	      7.63792031	     -5.44349970
      6.18000000	      5.72183137	     -4.12367541	      3.47107678	     -1.10982917	      0.93885550	      0.26148591	      4.91886132	     10.03589246	     -3.36941711	     -9.15626380	      7.15173358	     -0.46074049	      0.00000000	      5.11800981	     -5.41428005	     -6.23604979	    -59.66149601	     -8.09150524	    -14.53811540	      0.00000000	    -22.70929532	      7.52576989	     -5.26075028
      6.19000000	      5.53807096	     -4.06224301	      3.39080808	     -1.10137752	      0.93957304	      0.26196189	      4.42375038	     10.02190807	     -3.32449936	     -8.96537223	      7.62295662	     -0.21938279	      0.00000000	      6.58361825	     -5.30302558	     -6.10609087	    -60.43444300	     -6.09630975	    -15.35209012	      0.00000000	    -22.58227812	      7.35750521	     -5.11823125
      6.20000000	      5.35275271	     -3.98032623	      3.31101713	     -1.09301541	      0.94023431	      0.26239522	      3.94744176	      9.97867943	     -3.32946970	     -8.79203694	      8.03834778	      0.08404701	      0.00000000	      8.01133270	     -5.13566735	     -5.94255573	    -60.93794913	     -4.22252056	    -15.92840130	      0.00000000	    -22.47178620	      7.16861392	     -4.97969638
